<svg xmlns="http://www.w3.org/2000/svg" version="1.1" xmlns:xlink="http://www.w3.org/1999/xlink" xmlns:svgjs="http://svgjs.dev/svgjs" width="1500" height="1500" viewBox="0 0 1500 1500">
    <rect width="1500" height="1500" fill="#ffffff"></rect>
    <g transform="matrix(0.6666666666666666,0,0,0.6666666666666666,249.39393939393938,487.45133358981906)">
        <svg viewBox="0 0 396 208" data-background-color="#000000" preserveAspectRatio="xMidYMid meet" height="787" width="1500" xmlns="http://www.w3.org/2000/svg" xmlns:xlink="http://www.w3.org/1999/xlink">
            <g id="tight-bounds" transform="matrix(1,0,0,1,0.2400000000000091,0.08536711559909804)">
                <svg viewBox="0 0 395.52 207.8292657688018" height="207.8292657688018" width="395.52">
                    <g>
                        <svg viewBox="0 0 395.52 207.8292657688018" height="207.8292657688018" width="395.52">
                            <g transform="matrix(1,0,0,1,0,124.39643862508126)">
                                <svg viewBox="0 0 395.52 83.43282714372054" height="83.43282714372054" width="395.52">
                                    <g id="textblocktransform">
                                        <svg viewBox="0 0 395.52 83.43282714372054" height="83.43282714372054" width="395.52" id="textblock">
                                            <g>
                                                <svg viewBox="0 0 395.52 62.935155916275086" height="62.935155916275086" width="395.52">
                                                    <g transform="matrix(1,0,0,1,0,0)">
                                                        <svg width="395.52" viewBox="1.75 -36.95 234.08 37.25" height="62.935155916275086" data-palette-color="#ffffff">
                                                            <path
                                                                d="M9.15-12.6L9.15-12.6Q9.15-9.55 10.75-7.68 12.35-5.8 14.65-5.8L14.65-5.8Q17.15-5.8 18.7-7.75 20.25-9.7 20.25-12.95L20.25-12.95Q20.25-16.1 18.57-17.85 16.9-19.6 14.6-19.6 12.3-19.6 10.73-17.75 9.15-15.9 9.15-12.6ZM27.55-35.35L27.55 0 20.25 0 20.25-3.95Q17.7 0.3 12.65 0.3L12.65 0.3Q7.7 0.3 4.73-3.55 1.75-7.4 1.75-12.75L1.75-12.75Q1.75-18.75 4.85-22.2 7.95-25.65 12.7-25.65L12.7-25.65Q17.65-25.65 20.25-21.45L20.25-21.45 20.25-35.35 27.55-35.35ZM53.45-7.55L53.45-1.45Q50.85 0.25 45.5 0.25L45.5 0.25Q39.25 0.25 35.77-3.38 32.3-7 32.3-12.7L32.3-12.7Q32.3-18.75 35.67-22.18 39.05-25.6 44-25.6L44-25.6Q49.1-25.6 52.05-22.63 55-19.65 55-13.75L55-13.75Q55-12.6 54.6-9.8L54.6-9.8 39.7-9.8Q40.45-7.7 42.3-6.55 44.15-5.4 46.75-5.4L46.75-5.4Q50.6-5.4 53.45-7.55L53.45-7.55ZM44.3-20.05L44.3-20.05Q42.55-20.05 41.2-18.78 39.85-17.5 39.4-15L39.4-15 48.2-15 48.2-15.6Q47.85-20.05 44.3-20.05ZM83.75-25.35L74.3 0 66.8 0 57.45-25.35 65.1-25.35 68.4-14.55Q69.15-12.05 69.7-9.83 70.25-7.6 70.4-6.6L70.4-6.6 70.6-5.65Q71.05-8.9 72.85-14.55L72.85-14.55 76.25-25.35 83.75-25.35ZM94.54-25.35L94.54 0 87.24 0 87.24-25.35 94.54-25.35ZM93.89-35.7Q95.14-34.45 95.14-32.7 95.14-30.95 93.89-29.7 92.64-28.45 90.89-28.45 89.14-28.45 87.89-29.7 86.64-30.95 86.64-32.7 86.64-34.45 87.89-35.7 89.14-36.95 90.89-36.95 92.64-36.95 93.89-35.7ZM124.04-16.45L124.04 0 116.74 0 116.74-15.1Q116.74-17.35 115.69-18.53 114.64-19.7 112.74-19.7L112.74-19.7Q110.74-19.7 109.42-18.13 108.09-16.55 108.09-13.4L108.09-13.4 108.09 0 100.79 0 100.79-25.35 108.09-25.35 108.09-21.05Q109.04-23.15 111.02-24.38 112.99-25.6 115.74-25.6L115.74-25.6Q119.64-25.6 121.84-23.28 124.04-20.95 124.04-16.45L124.04-16.45ZM144.89-8.3L142.69 0 135.19 0 127.04-25.35 134.59-25.35 136.79-17Q137.59-13.85 138.14-11.33 138.69-8.8 138.79-7.85L138.79-7.85 138.94-6.9Q139.29-9.9 141.39-17L141.39-17 143.84-25.35 150.14-25.35 152.54-17Q153.44-13.8 154.04-11.28 154.64-8.75 154.79-7.8L154.79-7.8 154.94-6.9Q155.29-9.85 157.29-17L157.29-17 159.64-25.35 166.84-25.35 158.74 0 151.24 0 149.04-8.3Q148.34-11 147.81-13.35 147.29-15.7 147.14-16.7L147.14-16.7 146.99-17.7Q146.49-14.35 144.89-8.3L144.89-8.3ZM179.39-5L179.39-5Q180.94-5 181.78-5.95 182.64-6.9 182.64-8.55L182.64-8.55 182.64-10.4 180.28-10.4Q178.44-10.4 177.44-9.6 176.44-8.8 176.44-7.55L176.44-7.55Q176.44-5 179.39-5ZM182.99 0L182.99-3.1Q181.39 0.15 176.69 0.15L176.69 0.15Q172.99 0.15 170.91-1.95 168.84-4.05 168.84-7.2L168.84-7.2Q168.84-10.85 171.51-12.88 174.19-14.9 179.44-14.9L179.44-14.9 182.64-14.9 182.64-16.65Q182.64-19.85 178.39-19.85L178.39-19.85Q174.28-19.85 170.78-17.55L170.78-17.55 170.78-24.1Q173.78-25.8 179.44-25.8L179.44-25.8Q184.84-25.8 187.49-23.48 190.14-21.15 190.14-16.25L190.14-16.25 190.14 0 182.99 0ZM203.13-12.65L203.13 0 195.83 0 195.88-25.35 203.13-25.35 203.13-20.65Q203.83-22.85 205.46-24.18 207.08-25.5 209.23-25.5L209.23-25.5Q210.43-25.5 211.13-25.3L211.13-25.3 211.13-18.4Q209.93-18.95 208.38-18.95L208.38-18.95Q206.03-18.95 204.58-17.23 203.13-15.5 203.13-12.65L203.13-12.65ZM234.28-7.55L234.28-1.45Q231.68 0.25 226.33 0.25L226.33 0.25Q220.08 0.25 216.61-3.38 213.13-7 213.13-12.7L213.13-12.7Q213.13-18.75 216.51-22.18 219.88-25.6 224.83-25.6L224.83-25.6Q229.93-25.6 232.88-22.63 235.83-19.65 235.83-13.75L235.83-13.75Q235.83-12.6 235.43-9.8L235.43-9.8 220.53-9.8Q221.28-7.7 223.13-6.55 224.98-5.4 227.58-5.4L227.58-5.4Q231.43-5.4 234.28-7.55L234.28-7.55ZM225.13-20.05L225.13-20.05Q223.38-20.05 222.03-18.78 220.68-17.5 220.23-15L220.23-15 229.03-15 229.03-15.6Q228.68-20.05 225.13-20.05Z"
                                                                opacity="1" transform="matrix(1,0,0,1,0,0)" fill="#000000" class="wordmark-text-0" data-fill-palette-color="primary" id="text-0"></path>
                                                        </svg>
                                                    </g>
                                                </svg>
                                            </g>
                                            <g transform="matrix(1,0,0,1,94.92479999999999,77.79263578436564)">
                                                <svg viewBox="0 0 205.6704 5.6401913593549065" height="5.6401913593549065" width="205.6704">
                                                    <g transform="matrix(1,0,0,1,0,0)">
                                                        <svg width="205.6704" viewBox="3.15 -38.6 1438.4399999999998 39.45" height="5.6401913593549065" data-palette-color="#ffffff">
                                                            <path
                                                                d="M16.1 0.85Q8.85 0.85 3.15-1.85L3.15-1.85 3.15-6.45Q8.9-3.4 16.1-3.4L16.1-3.4Q20.25-3.4 22.18-5.15 24.1-6.9 24.1-9.75L24.1-9.75Q24.1-12.45 22.33-13.8 20.55-15.15 17.1-16.15L17.1-16.15 13.7-17.1Q10.8-17.95 8.75-19.05 6.7-20.15 5.33-22.23 3.95-24.3 3.95-27.65L3.95-27.65Q3.95-33 7.08-35.8 10.2-38.6 15.95-38.6L15.95-38.6Q19.3-38.6 21.85-37.98 24.4-37.35 27.15-36.1L27.15-36.1 27.15-31.6Q22.05-34.35 15.95-34.35L15.95-34.35Q12.25-34.35 10.55-32.63 8.85-30.9 8.85-27.9L8.85-27.9Q8.9-25.15 10.53-23.85 12.15-22.55 15.6-21.55L15.6-21.55 19.05-20.6Q22.1-19.75 24.23-18.63 26.35-17.5 27.68-15.38 29-13.25 29-9.85L29-9.85Q28.95-4.9 25.53-2.02 22.1 0.85 16.1 0.85L16.1 0.85ZM53.05 0.85Q47.2 0.85 43.12-1.73 39.05-4.3 37-8.78 34.95-13.25 34.95-18.9L34.95-18.9Q34.95-24.45 37-28.9 39.05-33.35 43.12-35.98 47.2-38.6 53.05-38.6L53.05-38.6Q58.85-38.6 62.9-35.98 66.95-33.35 69.02-28.88 71.1-24.4 71.1-18.9L71.1-18.9Q71.1-13.25 69.05-8.78 67-4.3 62.92-1.73 58.85 0.85 53.05 0.85L53.05 0.85ZM53.05-3.4Q57.15-3.4 60.1-5.45 63.05-7.5 64.57-11.05 66.1-14.6 66.1-19.05L66.1-19.05Q66.1-23.35 64.55-26.83 63-30.3 60.05-32.33 57.1-34.35 53.05-34.35L53.05-34.35Q48.85-34.35 45.9-32.3 42.95-30.25 41.45-26.75 39.95-23.25 39.95-18.9L39.95-18.9Q39.95-14.45 41.45-10.95 42.95-7.45 45.9-5.43 48.85-3.4 53.05-3.4L53.05-3.4ZM102.25-33.55L84.15-33.55 84.15-20.55 99.75-20.55 99.75-16.2 84.15-16.2 84.15 0 79.3 0 79.3-37.9 102.25-37.9 102.25-33.55ZM134.29-37.9L134.29-33.55 122.89-33.55 122.89 0 117.99 0 117.99-33.55 106.59-33.55 106.59-37.9 134.29-37.9ZM184.29-37.9L189.19-37.9 178.29 0.45 172.89 0.45 163.74-30.7 154.64 0.45 149.24 0.45 138.29-37.9 143.19-37.9 151.99-6.1 160.99-37.9 166.49-37.9 175.54-6.05 184.29-37.9ZM221.49 0L217.39-11.05 201.59-11.05 197.54 0 192.54 0 206.79-38.35 212.19-38.35 226.49 0 221.49 0ZM203.24-15.4L215.74-15.4 209.49-32.3 203.24-15.4ZM255.09 0L245.34-16.05 237.99-16.05 237.99 0 233.14 0 233.14-37.9 246.39-37.9Q258.79-37.9 258.79-26.9L258.79-26.9Q258.79-22.55 256.71-19.88 254.64-17.2 250.49-16.4L250.49-16.4 260.64 0 255.09 0ZM237.99-33.65L237.99-20.3 246.39-20.3Q253.79-20.3 253.84-26.9L253.84-26.9Q253.84-30.4 251.99-32.02 250.14-33.65 246.39-33.65L246.39-33.65 237.99-33.65ZM273.28-4.2L291.63-4.2 291.63 0 268.43 0 268.43-37.9 291.38-37.9 291.38-33.7 273.28-33.7 273.28-21.15 288.88-21.15 288.88-16.95 273.28-16.95 273.28-4.2ZM323.58-37.9Q332.93-37.9 337.7-33.08 342.48-28.25 342.48-18.9L342.48-18.9Q342.48-9.5 337.73-4.75 332.98 0 323.58 0L323.58 0 310.98 0 310.98-37.9 323.58-37.9ZM337.48-19.05Q337.48-26.55 333.98-30.1 330.48-33.65 323.58-33.65L323.58-33.65 315.83-33.65 315.83-4.25 323.58-4.25Q330.53-4.25 334-7.8 337.48-11.35 337.48-19.05L337.48-19.05ZM355.63-4.2L373.98-4.2 373.98 0 350.78 0 350.78-37.9 373.73-37.9 373.73-33.7 355.63-33.7 355.63-21.15 371.23-21.15 371.23-16.95 355.63-16.95 355.63-4.2ZM407.52-37.9L412.57-37.9 398.32 0.45 392.92 0.45 378.62-37.9 383.72-37.9 395.62-5.6 407.52-37.9ZM424.47-4.2L442.82-4.2 442.82 0 419.62 0 419.62-37.9 442.57-37.9 442.57-33.7 424.47-33.7 424.47-21.15 440.07-21.15 440.07-16.95 424.47-16.95 424.47-4.2ZM456.02-4.35L471.87-4.35 471.87 0 451.17 0 451.17-37.9 456.02-37.9 456.02-4.35ZM494.77 0.85Q488.92 0.85 484.84-1.73 480.77-4.3 478.72-8.78 476.67-13.25 476.67-18.9L476.67-18.9Q476.67-24.45 478.72-28.9 480.77-33.35 484.84-35.98 488.92-38.6 494.77-38.6L494.77-38.6Q500.57-38.6 504.62-35.98 508.67-33.35 510.74-28.88 512.82-24.4 512.82-18.9L512.82-18.9Q512.82-13.25 510.77-8.78 508.72-4.3 504.64-1.73 500.57 0.85 494.77 0.85L494.77 0.85ZM494.77-3.4Q498.87-3.4 501.82-5.45 504.77-7.5 506.29-11.05 507.82-14.6 507.82-19.05L507.82-19.05Q507.82-23.35 506.27-26.83 504.72-30.3 501.77-32.33 498.82-34.35 494.77-34.35L494.77-34.35Q490.57-34.35 487.62-32.3 484.67-30.25 483.17-26.75 481.67-23.25 481.67-18.9L481.67-18.9Q481.67-14.45 483.17-10.95 484.67-7.45 487.62-5.43 490.57-3.4 494.77-3.4L494.77-3.4ZM534.26-37.9Q546.66-37.9 546.66-26.6L546.66-26.6Q546.66-21.1 543.56-18.23 540.46-15.35 534.26-15.35L534.26-15.35 525.86-15.35 525.86 0 521.01 0 521.01-37.9 534.26-37.9ZM541.71-26.6Q541.71-30.3 539.86-31.98 538.01-33.65 534.26-33.65L534.26-33.65 525.86-33.65 525.86-19.65 534.26-19.65Q541.66-19.65 541.71-26.6L541.71-26.6ZM584.01-37.9L589.36-37.9 589.36 0 584.51 0 584.51-30.55 572.91-14.4 570.36-14.4 558.86-30.55 558.86 0 554.01 0 554.01-37.9 559.31-37.9 571.66-20.6 584.01-37.9ZM604.91-4.2L623.26-4.2 623.26 0 600.06 0 600.06-37.9 623.01-37.9 623.01-33.7 604.91-33.7 604.91-21.15 620.51-21.15 620.51-16.95 604.91-16.95 604.91-4.2ZM655.55-37.9L660.4-37.9 660.4 0 655.1 0 636.45-29.75 636.45 0 631.6 0 631.6-37.9 636.85-37.9 655.55-8.15 655.55-37.9ZM695.45-37.9L695.45-33.55 684.05-33.55 684.05 0 679.15 0 679.15-33.55 667.75-33.55 667.75-37.9 695.45-37.9ZM736.75-33.55L718.65-33.55 718.65-20.55 734.25-20.55 734.25-16.2 718.65-16.2 718.65 0 713.8 0 713.8-37.9 736.75-37.9 736.75-33.55ZM759.99 0.85Q754.14 0.85 750.07-1.73 745.99-4.3 743.94-8.78 741.89-13.25 741.89-18.9L741.89-18.9Q741.89-24.45 743.94-28.9 745.99-33.35 750.07-35.98 754.14-38.6 759.99-38.6L759.99-38.6Q765.79-38.6 769.84-35.98 773.89-33.35 775.97-28.88 778.04-24.4 778.04-18.9L778.04-18.9Q778.04-13.25 775.99-8.78 773.94-4.3 769.87-1.73 765.79 0.85 759.99 0.85L759.99 0.85ZM759.99-3.4Q764.09-3.4 767.04-5.45 769.99-7.5 771.52-11.05 773.04-14.6 773.04-19.05L773.04-19.05Q773.04-23.35 771.49-26.83 769.94-30.3 766.99-32.33 764.04-34.35 759.99-34.35L759.99-34.35Q755.79-34.35 752.84-32.3 749.89-30.25 748.39-26.75 746.89-23.25 746.89-18.9L746.89-18.9Q746.89-14.45 748.39-10.95 749.89-7.45 752.84-5.43 755.79-3.4 759.99-3.4L759.99-3.4ZM808.19 0L798.44-16.05 791.09-16.05 791.09 0 786.24 0 786.24-37.9 799.49-37.9Q811.89-37.9 811.89-26.9L811.89-26.9Q811.89-22.55 809.82-19.88 807.74-17.2 803.59-16.4L803.59-16.4 813.74 0 808.19 0ZM791.09-33.65L791.09-20.3 799.49-20.3Q806.89-20.3 806.94-26.9L806.94-26.9Q806.94-30.4 805.09-32.02 803.24-33.65 799.49-33.65L799.49-33.65 791.09-33.65ZM861.34-37.9L847.39-14.65 847.39 0 842.59 0 842.59-14.65 828.69-37.9 833.69-37.9 844.99-18.75 856.34-37.9 861.34-37.9ZM883.73 0.85Q877.88 0.85 873.81-1.73 869.73-4.3 867.68-8.78 865.63-13.25 865.63-18.9L865.63-18.9Q865.63-24.45 867.68-28.9 869.73-33.35 873.81-35.98 877.88-38.6 883.73-38.6L883.73-38.6Q889.53-38.6 893.58-35.98 897.63-33.35 899.71-28.88 901.78-24.4 901.78-18.9L901.78-18.9Q901.78-13.25 899.73-8.78 897.68-4.3 893.61-1.73 889.53 0.85 883.73 0.85L883.73 0.85ZM883.73-3.4Q887.83-3.4 890.78-5.45 893.73-7.5 895.26-11.05 896.78-14.6 896.78-19.05L896.78-19.05Q896.78-23.35 895.23-26.83 893.68-30.3 890.73-32.33 887.78-34.35 883.73-34.35L883.73-34.35Q879.53-34.35 876.58-32.3 873.63-30.25 872.13-26.75 870.63-23.25 870.63-18.9L870.63-18.9Q870.63-14.45 872.13-10.95 873.63-7.45 876.58-5.43 879.53-3.4 883.73-3.4L883.73-3.4ZM924.23 0.85Q916.98 0.85 913.38-2.83 909.78-6.5 909.78-13.25L909.78-13.25 909.78-37.9 914.68-37.9 914.68-13.25Q914.68-8.4 917.08-5.9 919.48-3.4 924.23-3.4L924.23-3.4Q928.98-3.4 931.38-5.9 933.78-8.4 933.78-13.25L933.78-13.25 933.78-37.9 938.68-37.9 938.68-13.25Q938.68-6.5 935.08-2.83 931.48 0.85 924.23 0.85L924.23 0.85ZM971.13 0L961.38-16.05 954.03-16.05 954.03 0 949.18 0 949.18-37.9 962.43-37.9Q974.83-37.9 974.83-26.9L974.83-26.9Q974.83-22.55 972.75-19.88 970.68-17.2 966.53-16.4L966.53-16.4 976.68 0 971.13 0ZM954.03-33.65L954.03-20.3 962.43-20.3Q969.83-20.3 969.88-26.9L969.88-26.9Q969.88-30.4 968.03-32.02 966.18-33.65 962.43-33.65L962.43-33.65 954.03-33.65ZM1008.07-37.9Q1017.42-37.9 1022.2-33.08 1026.97-28.25 1026.97-18.9L1026.97-18.9Q1026.97-9.5 1022.22-4.75 1017.47 0 1008.07 0L1008.07 0 995.47 0 995.47-37.9 1008.07-37.9ZM1021.97-19.05Q1021.97-26.55 1018.47-30.1 1014.97-33.65 1008.07-33.65L1008.07-33.65 1000.32-33.65 1000.32-4.25 1008.07-4.25Q1015.02-4.25 1018.5-7.8 1021.97-11.35 1021.97-19.05L1021.97-19.05ZM1035.27 0L1035.27-37.9 1040.12-37.9 1040.12 0 1035.27 0ZM1060.97-23.15L1079.87-23.15 1079.87-2.65Q1076.92-0.95 1073.39-0.05 1069.87 0.85 1066.82 0.85L1066.82 0.85Q1060.82 0.85 1056.64-1.63 1052.47-4.1 1050.37-8.55 1048.27-13 1048.27-18.9L1048.27-18.9Q1048.27-24.5 1050.29-28.95 1052.32-33.4 1056.49-36 1060.67-38.6 1066.82-38.6L1066.82-38.6Q1070.12-38.6 1072.39-37.98 1074.67-37.35 1077.52-36.1L1077.52-36.1 1077.52-31.5Q1074.97-32.9 1072.49-33.63 1070.02-34.35 1066.82-34.35L1066.82-34.35Q1062.57-34.35 1059.52-32.4 1056.47-30.45 1054.87-26.98 1053.27-23.5 1053.27-19.05L1053.27-19.05Q1053.27-14.4 1054.84-10.88 1056.42-7.35 1059.47-5.38 1062.52-3.4 1066.82-3.4L1066.82-3.4Q1068.97-3.4 1070.92-3.9 1072.87-4.4 1075.07-5.3L1075.07-5.3 1075.07-18.8 1060.97-18.8 1060.97-23.15ZM1089.42 0L1089.42-37.9 1094.27-37.9 1094.27 0 1089.42 0ZM1129.31-37.9L1129.31-33.55 1117.91-33.55 1117.91 0 1113.01 0 1113.01-33.55 1101.61-33.55 1101.61-37.9 1129.31-37.9ZM1161.61 0L1157.51-11.05 1141.71-11.05 1137.66 0 1132.66 0 1146.91-38.35 1152.31-38.35 1166.61 0 1161.61 0ZM1143.36-15.4L1155.86-15.4 1149.61-32.3 1143.36-15.4ZM1178.11-4.35L1193.96-4.35 1193.96 0 1173.26 0 1173.26-37.9 1178.11-37.9 1178.11-4.35ZM1223.05 0.85Q1215.8 0.85 1210.1-1.85L1210.1-1.85 1210.1-6.45Q1215.85-3.4 1223.05-3.4L1223.05-3.4Q1227.2-3.4 1229.13-5.15 1231.05-6.9 1231.05-9.75L1231.05-9.75Q1231.05-12.45 1229.28-13.8 1227.5-15.15 1224.05-16.15L1224.05-16.15 1220.65-17.1Q1217.75-17.95 1215.7-19.05 1213.65-20.15 1212.28-22.23 1210.9-24.3 1210.9-27.65L1210.9-27.65Q1210.9-33 1214.03-35.8 1217.15-38.6 1222.9-38.6L1222.9-38.6Q1226.25-38.6 1228.8-37.98 1231.35-37.35 1234.1-36.1L1234.1-36.1 1234.1-31.6Q1229-34.35 1222.9-34.35L1222.9-34.35Q1219.2-34.35 1217.5-32.63 1215.8-30.9 1215.8-27.9L1215.8-27.9Q1215.85-25.15 1217.48-23.85 1219.1-22.55 1222.55-21.55L1222.55-21.55 1226-20.6Q1229.05-19.75 1231.18-18.63 1233.3-17.5 1234.63-15.38 1235.95-13.25 1235.95-9.85L1235.95-9.85Q1235.9-4.9 1232.48-2.02 1229.05 0.85 1223.05 0.85L1223.05 0.85ZM1258.7 0.85Q1251.45 0.85 1247.85-2.83 1244.25-6.5 1244.25-13.25L1244.25-13.25 1244.25-37.9 1249.15-37.9 1249.15-13.25Q1249.15-8.4 1251.55-5.9 1253.95-3.4 1258.7-3.4L1258.7-3.4Q1263.45-3.4 1265.85-5.9 1268.25-8.4 1268.25-13.25L1268.25-13.25 1268.25-37.9 1273.15-37.9 1273.15-13.25Q1273.15-6.5 1269.55-2.83 1265.95 0.85 1258.7 0.85L1258.7 0.85ZM1299.65 0.85Q1293.55 0.85 1289.4-1.6 1285.25-4.05 1283.17-8.5 1281.1-12.95 1281.1-18.9L1281.1-18.9Q1281.1-24.5 1283.15-28.95 1285.2-33.4 1289.37-36 1293.55-38.6 1299.65-38.6L1299.65-38.6Q1302.3-38.6 1304.37-38.18 1306.45-37.75 1308.85-36.75L1308.85-36.75 1308.85-32.3Q1304.6-34.35 1299.75-34.35L1299.75-34.35Q1295.55-34.35 1292.45-32.38 1289.35-30.4 1287.7-26.88 1286.05-23.35 1286.1-18.9L1286.1-18.9Q1286.1-14.3 1287.7-10.8 1289.3-7.3 1292.35-5.35 1295.4-3.4 1299.65-3.4L1299.65-3.4Q1302.3-3.4 1304.87-4.15 1307.45-4.9 1310.3-6.3L1310.3-6.3 1311.85-2.2Q1308.95-0.7 1305.75 0.08 1302.55 0.85 1299.65 0.85L1299.65 0.85ZM1334.95 0.85Q1328.85 0.85 1324.7-1.6 1320.55-4.05 1318.47-8.5 1316.4-12.95 1316.4-18.9L1316.4-18.9Q1316.4-24.5 1318.45-28.95 1320.5-33.4 1324.67-36 1328.85-38.6 1334.95-38.6L1334.95-38.6Q1337.6-38.6 1339.67-38.18 1341.75-37.75 1344.15-36.75L1344.15-36.75 1344.15-32.3Q1339.9-34.35 1335.05-34.35L1335.05-34.35Q1330.85-34.35 1327.75-32.38 1324.65-30.4 1323-26.88 1321.35-23.35 1321.4-18.9L1321.4-18.9Q1321.4-14.3 1323-10.8 1324.6-7.3 1327.65-5.35 1330.7-3.4 1334.95-3.4L1334.95-3.4Q1337.6-3.4 1340.17-4.15 1342.75-4.9 1345.6-6.3L1345.6-6.3 1347.15-2.2Q1344.25-0.7 1341.05 0.08 1337.85 0.85 1334.95 0.85L1334.95 0.85ZM1359.09-4.2L1377.44-4.2 1377.44 0 1354.24 0 1354.24-37.9 1377.19-37.9 1377.19-33.7 1359.09-33.7 1359.09-21.15 1374.69-21.15 1374.69-16.95 1359.09-16.95 1359.09-4.2ZM1396.54 0.85Q1389.29 0.85 1383.59-1.85L1383.59-1.85 1383.59-6.45Q1389.34-3.4 1396.54-3.4L1396.54-3.4Q1400.69-3.4 1402.62-5.15 1404.54-6.9 1404.54-9.75L1404.54-9.75Q1404.54-12.45 1402.77-13.8 1400.99-15.15 1397.54-16.15L1397.54-16.15 1394.14-17.1Q1391.24-17.95 1389.19-19.05 1387.14-20.15 1385.77-22.23 1384.39-24.3 1384.39-27.65L1384.39-27.65Q1384.39-33 1387.52-35.8 1390.64-38.6 1396.39-38.6L1396.39-38.6Q1399.74-38.6 1402.29-37.98 1404.84-37.35 1407.59-36.1L1407.59-36.1 1407.59-31.6Q1402.49-34.35 1396.39-34.35L1396.39-34.35Q1392.69-34.35 1390.99-32.63 1389.29-30.9 1389.29-27.9L1389.29-27.9Q1389.34-25.15 1390.97-23.85 1392.59-22.55 1396.04-21.55L1396.04-21.55 1399.49-20.6Q1402.54-19.75 1404.67-18.63 1406.79-17.5 1408.12-15.38 1409.44-13.25 1409.44-9.85L1409.44-9.85Q1409.39-4.9 1405.97-2.02 1402.54 0.85 1396.54 0.85L1396.54 0.85ZM1428.69 0.85Q1421.44 0.85 1415.74-1.85L1415.74-1.85 1415.74-6.45Q1421.49-3.4 1428.69-3.4L1428.69-3.4Q1432.84-3.4 1434.76-5.15 1436.69-6.9 1436.69-9.75L1436.69-9.75Q1436.69-12.45 1434.91-13.8 1433.14-15.15 1429.69-16.15L1429.69-16.15 1426.29-17.1Q1423.39-17.95 1421.34-19.05 1419.29-20.15 1417.91-22.23 1416.54-24.3 1416.54-27.65L1416.54-27.65Q1416.54-33 1419.66-35.8 1422.79-38.6 1428.54-38.6L1428.54-38.6Q1431.89-38.6 1434.44-37.98 1436.99-37.35 1439.74-36.1L1439.74-36.1 1439.74-31.6Q1434.64-34.35 1428.54-34.35L1428.54-34.35Q1424.84-34.35 1423.14-32.63 1421.44-30.9 1421.44-27.9L1421.44-27.9Q1421.49-25.15 1423.11-23.85 1424.74-22.55 1428.19-21.55L1428.19-21.55 1431.64-20.6Q1434.69-19.75 1436.81-18.63 1438.94-17.5 1440.26-15.38 1441.59-13.25 1441.59-9.85L1441.59-9.85Q1441.54-4.9 1438.11-2.02 1434.69 0.85 1428.69 0.85L1428.69 0.85Z"
                                                                opacity="1" transform="matrix(1,0,0,1,0,0)" fill="#000000" class="slogan-text-1" data-fill-palette-color="secondary" id="text-1"></path>
                                                        </svg>
                                                    </g>
                                                </svg>
                                            </g>
                                        </svg>
                                    </g>
                                </svg>
                            </g>
                            <g transform="matrix(1,0,0,1,135.59308444570786,0)">
                                <svg viewBox="0 0 124.33383110858425 109.5389587569907" height="109.5389587569907" width="124.33383110858425">
                                    <g>
                                        <svg xmlns="http://www.w3.org/2000/svg" xmlns:xlink="http://www.w3.org/1999/xlink" version="1.1" x="0" y="0" viewBox="6.3 11.5 87.4 77" style="enable-background:new 0 0 100 100;" xml:space="preserve" height="109.5389587569907" width="124.33383110858425" class="icon-icon-0" data-fill-palette-color="accent" id="icon-0"><path d="M72.3 12.3L71.9 11.5H28.2L6.3 50 28.1 88.5H71.8L93.7 50zM33.3 25.3L9.9 47.7 28.5 14.9zM70.7 14.8L77.1 50.5 36.9 25.8zM35.5 27.3L76.5 52.5 35.5 75.8zM77 54.5L69.8 85.3 37.2 77.2zM33.5 75L9.9 50.5 33.5 27.8zM33.2 77.6L28.6 85.3 11.5 55.1zM35 78.6L66.4 86.5H30.2zM79.3 53.3L90.9 50.8 72.1 84zM90.7 48.9L79.3 51.4 73.4 18.3zM35 24.3L30 13.5H68.2z" fill="#000000" data-fill-palette-color="accent"></path></svg>
                                    </g>
                                </svg>
                            </g>
                            <g></g>
                        </svg>
                    </g>
                    <defs></defs>
                </svg>
                <rect width="395.52" height="207.8292657688018" fill="none" stroke="none" visibility="hidden"></rect>
            </g>
        </svg>
    </g>
</svg>
