<?xml version="1.0" encoding="utf-8"?>
<!-- Generator: Adobe Illustrator 21.1.0, SVG Export Plug-In . SVG Version: 6.00 Build 0)  -->
<svg version="1.1" id="Layer_1" xmlns="http://www.w3.org/2000/svg" xmlns:xlink="http://www.w3.org/1999/xlink" x="0px" y="0px"
	 viewBox="0 0 1429.2 237.2" style="enable-background:new 0 0 1429.2 237.2;" xml:space="preserve">
<style type="text/css">
	.st0{fill:url(#SVGID_1_);}
	.st1{fill:url(#SVGID_2_);}
	.st2{fill:url(#SVGID_3_);}
	.st3{fill:url(#SVGID_4_);}
	.st4{fill:url(#SVGID_5_);}
	.st5{fill:url(#SVGID_6_);}
	.st6{fill:url(#SVGID_7_);}
	.st7{fill:url(#SVGID_8_);}
	.st8{fill:url(#SVGID_9_);}
	.st9{fill:url(#SVGID_10_);}
	.st10{fill:url(#SVGID_11_);}
	.st11{fill:#D7DBE5;}
	.st12{fill:#315799;}
	.st13{fill:#ABAEC0;}
</style>
<g>
	<g id="Logo_3_">
		<g>
			<linearGradient id="SVGID_1_" gradientUnits="userSpaceOnUse" x1="102.2134" y1="34.7455" x2="95.7866" y2="-10.9839">
				<stop  offset="0" style="stop-color:#53BDEC"/>
				<stop  offset="1" style="stop-color:#79CCEA"/>
			</linearGradient>
			<polygon class="st0" points="190.3,0.9 11.2,0.9 7.7,22.9 186.8,22.9 			"/>
			<linearGradient id="SVGID_2_" gradientUnits="userSpaceOnUse" x1="204.0578" y1="256.5604" x2="170.375" y2="65.5353">
				<stop  offset="0" style="stop-color:#3374B9"/>
				<stop  offset="0.74" style="stop-color:#3E94D0"/>
				<stop  offset="0.7499" style="stop-color:#53BDEC"/>
				<stop  offset="1" style="stop-color:#79CCEA"/>
			</linearGradient>
			<path class="st1" d="M339.3,40.9L337.8,52c-5.7-8.1-12-12.2-19-12.2c-12.5,0-19.8,7-22.1,21.1l-17.7,111.5
				c-0.5,3.3-0.8,6.2-0.8,8.8c0,10.9,5.4,16.4,16.1,16.4c9.5,0,16.7-4.1,21.5-12.2l-3.1,19.8c-1,6.4-3.6,9.6-7.8,9.6h-28.5l0,0.1
				L105,214.9l0,0L3.5,215L0,237.2l101.5,0l0,0l179.9-0.1l0,0h26.5c11.1,0,18.8-2,23.1-6.1c4.3-4.1,7.4-11.7,9.1-22.8l26.5-167.4
				H339.3z M334.4,73.6l-14.3,90c-1.2,8-4.1,12-8.6,12c-3.3,0-4.9-1.9-4.9-5.7c0-1.6,0-2.3,0.1-2.3l15.4-97c0.9-5.7,3.4-8.6,7.7-8.6
				c3.2,0,4.9,2.3,4.9,7C334.6,71,334.5,72.6,334.4,73.6z"/>
			<linearGradient id="SVGID_3_" gradientUnits="userSpaceOnUse" x1="409.4541" y1="196.422" x2="382.0083" y2="40.7689">
				<stop  offset="0" style="stop-color:#3374B9"/>
				<stop  offset="0.75" style="stop-color:#3E94D0"/>
				<stop  offset="0.76" style="stop-color:#53BDEC"/>
				<stop  offset="1" style="stop-color:#79CCEA"/>
			</linearGradient>
			<path class="st2" d="M431.9,64.3l3.9-24.4h-8c-7.9,0-14.8,3.8-20.6,11.4h-1l1-10.4h-25.7L356.3,201h27.1l15.3-97.2
				c1.6-10.4,3-17.6,4.4-21.6c2.9-9,7.2-14.5,12.7-16.4c2.9-1,7-1.6,12.2-1.6H431.9z"/>
			<linearGradient id="SVGID_4_" gradientUnits="userSpaceOnUse" x1="480.5479" y1="198.6651" x2="453.1331" y2="43.1879">
				<stop  offset="0" style="stop-color:#3374B9"/>
				<stop  offset="0.84" style="stop-color:#3E94D0"/>
				<stop  offset="0.85" style="stop-color:#53BDEC"/>
				<stop  offset="1" style="stop-color:#79CCEA"/>
			</linearGradient>
			<path class="st3" d="M509.4,60.4c0-13.7-10-20.5-29.9-20.5c-11.3,0-19.8,1.8-25.5,5.5c-6.4,4.3-10.5,11.8-12.2,22.4l-16.6,106.6
				c-0.5,3.3-0.8,5.8-0.8,7.5c0,8.3,3,14,9.1,16.9c4.5,2.3,11.4,3.4,20.5,3.4c11.3,0,19.8-1.8,25.5-5.5c6.6-4.3,10.7-11.8,12.5-22.4
				l16.6-106.6C509.2,64.3,509.4,61.9,509.4,60.4z M481.8,67.6l-16.6,106.6c-0.9,5.2-3.5,7.8-8,7.8c-3.8,0-5.7-1.4-5.7-4.2
				c0-1,0.1-2.1,0.2-3.1l17.1-107.7c0.7-4.8,3.2-7.3,7.6-7.3c4,0,6,1.5,6,4.4L481.8,67.6z"/>
			<linearGradient id="SVGID_5_" gradientUnits="userSpaceOnUse" x1="565.7251" y1="201.7702" x2="537.0818" y2="39.3262">
				<stop  offset="0" style="stop-color:#3374B9"/>
				<stop  offset="0.91" style="stop-color:#3E94D0"/>
				<stop  offset="0.92" style="stop-color:#53BDEC"/>
				<stop  offset="1" style="stop-color:#79CCEA"/>
			</linearGradient>
			<path class="st4" d="M568.4,40.9l-19.6,124.6c-1.6,9.9-4.6,14.8-9.2,14.8c-3.5,0-5.2-1.9-5.2-5.6c0-1.4,0.2-3.3,0.5-5.6
				l20.4-128.2h-26.8l-21.8,137.3c-0.5,3.3-0.8,6.6-0.8,9.9c0,9.4,5.5,14,16.4,14c9.4,0,16.8-3.6,22.4-10.7l-0.3,9.6H570l25.2-160.2
				H568.4z"/>
			<linearGradient id="SVGID_6_" gradientUnits="userSpaceOnUse" x1="647.144" y1="230.8557" x2="613.6903" y2="41.1302">
				<stop  offset="0" style="stop-color:#3374B9"/>
				<stop  offset="1" style="stop-color:#3E94D0"/>
			</linearGradient>
			<path class="st5" d="M663.5,39.8c-9.2,0-16.9,4-22.9,12l-0.8,0l1.5-10.9h-26.1l-30.9,196.3h27.1l8-48.8
				c3.3,8.5,9.1,12.7,17.6,12.7c8.1,0,14.1-2.8,18.1-8.3c2.9-4.2,5.1-10.7,6.5-19.8l17.4-109.5c0.5-3.3,0.8-6.2,0.8-8.6
				C679.7,44.8,674.3,39.8,663.5,39.8z M649.9,72.3l-15.3,97.8c-1,6.2-3.7,9.3-8,9.3c-3.6,0-5.4-2.1-5.4-6.5c0-0.9,0.2-2.4,0.5-4.7
				l14.9-96c1-7.1,3.8-10.7,8.3-10.7c3.8,0,5.7,1.6,5.7,4.8C650.6,67,650.3,69,649.9,72.3z"/>
		</g>
		<g>
			<linearGradient id="SVGID_7_" gradientUnits="userSpaceOnUse" x1="65.4169" y1="198.5284" x2="38.0104" y2="43.0982">
				<stop  offset="0" style="stop-color:#202053"/>
				<stop  offset="0.41" style="stop-color:#3E4775"/>
				<stop  offset="0.42" style="stop-color:#5C6189"/>
				<stop  offset="1" style="stop-color:#5C628A"/>
			</linearGradient>
			<path class="st6" d="M61.9,97h26.6l4.7-30.9c0.5-3.3,0.8-5.5,0.8-6.5c0-13.2-10-19.8-29.9-19.8c-10.9,0-19.2,1.6-24.7,4.9
				C32.4,48.9,28.2,56,26.6,66.1c-2.3,14-3.4,22.5-3.4,25.5c0,8,4.9,18.4,14.8,31.3c9.9,12.9,14.8,22.1,14.8,27.7
				c0,1.9-0.9,8.3-2.6,19.2C49,178,46.2,182,41.7,182c-4,0-6-1.6-6-4.7c0-0.5,0.2-1.9,0.6-4.2l5.5-33.6H15.2l-5.5,33.5
				c-0.3,2.3-0.5,4.4-0.5,6.5c0,14.9,9.7,22.4,29.1,22.4c11.1,0,19.5-1.8,25.2-5.5c6.6-4.3,10.7-11.7,12.5-22.1
				c3.3-20.6,4.9-32.2,4.9-34.6c0-8-5-18-15.1-30C55.8,97.8,50.8,89,50.8,83.5c0-2.3,0.8-8.1,2.3-17.4c0.7-4.2,3.2-6.2,7.5-6.2
				c4,0,6,1.8,6,5.5c0,1.6-0.1,2.9-0.2,3.9L61.9,97z"/>
			<linearGradient id="SVGID_8_" gradientUnits="userSpaceOnUse" x1="146.1971" y1="198.6651" x2="118.7823" y2="43.188">
				<stop  offset="0" style="stop-color:#202053"/>
				<stop  offset="0.5" style="stop-color:#3E4775"/>
				<stop  offset="0.51" style="stop-color:#5C6189"/>
				<stop  offset="1" style="stop-color:#5C628A"/>
			</linearGradient>
			<path class="st7" d="M175.1,60.4c0-13.7-10-20.5-29.9-20.5c-11.3,0-19.8,1.8-25.5,5.5c-6.4,4.3-10.5,11.8-12.2,22.4L90.8,174.2
				c-0.5,3.3-0.8,5.8-0.8,7.5c0,8.3,3,14,9.1,16.9c4.5,2.3,11.4,3.4,20.5,3.4c11.3,0,19.8-1.8,25.5-5.5c6.6-4.3,10.7-11.8,12.5-22.4
				l16.6-106.6C174.8,64.3,175.1,61.9,175.1,60.4z M147.4,67.6l-16.6,106.6c-0.9,5.2-3.5,7.8-8,7.8c-3.8,0-5.7-1.4-5.7-4.2
				c0-1,0.1-2.1,0.2-3.1l17.1-107.7c0.7-4.8,3.2-7.3,7.6-7.3c4,0,6,1.5,6,4.4L147.4,67.6z"/>
			<linearGradient id="SVGID_9_" gradientUnits="userSpaceOnUse" x1="437.7444" y1="158.0601" x2="404.2527" y2="-31.8806">
				<stop  offset="0" style="stop-color:#202053"/>
				<stop  offset="0.46" style="stop-color:#3E4775"/>
				<stop  offset="0.47" style="stop-color:#5C6189"/>
				<stop  offset="1" style="stop-color:#5C628A"/>
			</linearGradient>
			<path class="st8" d="M515,0.8L515,0.8l-179.9,0l0,0l-101.5,0l0,0H225c-9.7,0-16.8,1.6-21.3,4.7c-3.8,2.8-6.4,7.4-7.8,13.8
				c-1.2,7.3-2.3,14.5-3.4,21.6h-8.8l-3.4,20.8h8.8L167,201h27.1l22.1-139.3l8,0l3.4-20.8h-8.1c0.9-5.4,1.5-9.4,2-12.2
				c0.4-2.8,1.3-4.5,2.7-5.2c0.8-0.3,2.8-0.5,5.9-0.5l0,0l101.5,0l0,0l71.8,0l0,0l101.5,0l0,0l179.9-0.1l3.5-22.2L515,0.8z"/>
			<linearGradient id="SVGID_10_" gradientUnits="userSpaceOnUse" x1="462.5669" y1="251.4189" x2="455.4331" y2="200.6591">
				<stop  offset="0" style="stop-color:#202053"/>
				<stop  offset="1" style="stop-color:#202053"/>
			</linearGradient>
			<polygon class="st9" points="532.1,215 352.9,215.1 349.4,237.1 385.9,237.1 385.9,237.1 565.1,237 568.6,215 532.1,215 			"/>
			<linearGradient id="SVGID_11_" gradientUnits="userSpaceOnUse" x1="271.1689" y1="200.0112" x2="241.4732" y2="31.5985">
				<stop  offset="0" style="stop-color:#202053"/>
				<stop  offset="0.59" style="stop-color:#3E4775"/>
				<stop  offset="0.6" style="stop-color:#5C6189"/>
				<stop  offset="1" style="stop-color:#5C628A"/>
			</linearGradient>
			<path class="st10" d="M278.5,29.9h-27.1l-1.8,11l-7.7,0l-3.3,20.8l7.8,0l-17.4,111.8c-1,6.6-1.6,11.1-1.6,13.5
				c0,6.2,2.1,10.5,6.2,12.7c2.9,1.6,7.9,2.3,14.8,2.3h11.2l3.6-23.4c-5,0-7.5-1.3-7.5-3.9l0.4-3.4l17.1-109.7l8.5,0l3.4-20.8
				l-8.4,0L278.5,29.9z"/>
		</g>
	</g>
	<g>
		<line class="st11" x1="799.4" y1="0.6" x2="762.9" y2="237.3"/>
		<polygon class="st11" points="767,237.2 758.9,237.2 795.5,0 803.6,0 		"/>
	</g>
	<g>
		<path class="st12" d="M888.2,101.5V40.2h6.9v61.4H888.2z"/>
		<path class="st12" d="M921.7,101.5V47h-17.5v-6.8h41.9V47h-17.6v54.6H921.7z"/>
		<path class="st12" d="M951.3,82.3v-6.1h19.9v6.1H951.3z"/>
		<path class="st12" d="M1013.5,101.5l-21-27.6l-5.5,7v20.6h-6.9V40.2h6.9v31.7l24.4-31.7h8.6l-23,29.2l25,32.2H1013.5z"/>
		<path class="st12" d="M1027.6,70.9c0-18.1,11-31.7,27.4-31.7c16.3,0,27.4,13.6,27.4,31.7s-11.1,31.7-27.4,31.7
			C1038.6,102.6,1027.6,89,1027.6,70.9z M1075.3,70.9c0-14.4-8-24.9-20.3-24.9c-12.4,0-20.3,10.6-20.3,24.9
			c0,14.3,7.9,24.9,20.3,24.9C1067.4,95.8,1075.3,85.1,1075.3,70.9z"/>
		<path class="st12" d="M1140.4,101.5V51l-18.8,50.5h-2.8L1100.1,51v50.5h-6.9V40.2h9.9l17.1,46.2l17.2-46.2h9.9v61.4H1140.4z"/>
		<path class="st12" d="M1199.4,101.5V47h-32.3v54.6h-6.9V40.2h46.1v61.4H1199.4z"/>
		<path class="st12" d="M1258.6,101.5l-4.9-13.6h-27.5l-4.9,13.6h-7.9l22.2-61.4h8.5l22.3,61.4H1258.6z M1240,48.1l-11.8,33h23.4
			L1240,48.1z"/>
		<path class="st12" d="M1312.9,101.5V73.4h-32.3v28.2h-6.9V40.2h6.9v26.4h32.3V40.2h6.9v61.4H1312.9z"/>
		<path class="st12" d="M1332.7,101.5V40.2h6.9v47.9l31.8-47.9h7v61.4h-6.9V52.6l-32.2,48.9H1332.7z"/>
		<path class="st12" d="M1388.7,101.5l14.9-25c-7.5-0.7-14.4-6.8-14.4-17.8c0-11.3,7.2-18.5,17.4-18.5h22.2v61.4h-6.9V77.1h-11.1
			l-14.1,24.4H1388.7z M1421.9,70.4V47h-14.6c-6.5,0-11,4.8-11,11.7c0,6.9,4.6,11.8,11,11.8H1421.9z"/>
	</g>
	<g>
		<path class="st13" d="M885.5,176.5c0-16.6,10.3-27.9,23.4-27.9c8.1,0,13.7,4.6,17.3,10.7l-4.8,3.2c-2.6-4.5-7.3-7.9-12.5-7.9
			c-10,0-17.5,9.1-17.5,21.9c0,12.8,7.6,21.9,17.5,21.9c5.2,0,9.9-3.2,12.5-7.9l4.8,3.2c-3.8,6.2-9.3,10.7-17.3,10.7
			C895.8,204.5,885.5,193.1,885.5,176.5z"/>
		<path class="st13" d="M931.7,176.5c0-16,9.1-27.9,22.6-27.9c13.4,0,22.6,12,22.6,27.9s-9.1,27.9-22.6,27.9
			C940.7,204.5,931.7,192.5,931.7,176.5z M971,176.5c0-12.6-6.6-21.9-16.7-21.9c-10.2,0-16.7,9.3-16.7,21.9
			c0,12.6,6.5,21.9,16.7,21.9C964.4,198.5,971,189.1,971,176.5z"/>
		<path class="st13" d="M1005.1,203.5v-5.3c-13.2-1.1-21.2-9.5-21.2-21.7c0-12.1,8-20.6,21.2-21.6v-5.4h5.7v5.4
			c13.1,1.1,21.2,9.6,21.2,21.6c0,12.2-8.1,20.7-21.2,21.7v5.3H1005.1z M1005.1,192.2v-31.3c-9.7,1-15.3,7-15.3,15.6
			C989.8,185.1,995.4,191.2,1005.1,192.2z M1010.7,160.9v31.3c9.6-1,15.4-7,15.4-15.6C1026.1,168,1020.3,161.9,1010.7,160.9z"/>
		<path class="st13" d="M1052,203.5v-48h-14.4v-6h34.5v6h-14.5v48H1052z"/>
		<path class="st13" d="M1097.3,203.5v-54h29.8v6H1103v48H1097.3z"/>
		<path class="st13" d="M1134.8,203.5v-54h18.3c9.1,0,14.3,7.5,14.3,16.3s-5.3,16.3-14.3,16.3h-12.6v21.5H1134.8z M1161.5,165.8
			c0-6.1-3.7-10.3-9.1-10.3h-11.9v20.6h11.9C1157.8,176.1,1161.5,171.8,1161.5,165.8z"/>
		<path class="st13" d="M1170.6,200.2l2.4-5.3c1.6,2,3.7,3.6,6.2,3.6c3.6,0,5.1-2.1,7.6-7.7l0.8-1.9l-17.5-39.4h6.5l14.3,33.5
			l14.3-33.5h6.5l-19.9,44.5c-2.9,6.4-5.9,10.5-12.4,10.5C1175.7,204.5,1172.2,202.6,1170.6,200.2z"/>
		<path class="st13" d="M1249.9,203.5v-48h-26.6v48h-5.7v-54h38v54H1249.9z"/>
	</g>
</g>
</svg>
